<mxfile host="app.diagrams.net" modified="2023-07-04T11:26:56.977Z" agent="Mozilla/5.0 (Windows NT 10.0; Win64; x64; rv:109.0) Gecko/20100101 Firefox/114.0" etag="nTjZxk5jJKbIRDw54myl" version="21.5.2" type="device" pages="2">
  <diagram name="Page-1" id="htDEeXGlB_QkYT8Hb9MT">
    <mxGraphModel dx="2191" dy="942" grid="1" gridSize="10" guides="1" tooltips="1" connect="1" arrows="1" fold="1" page="1" pageScale="1" pageWidth="850" pageHeight="1100" math="0" shadow="0">
      <root>
        <mxCell id="0" />
        <mxCell id="1" parent="0" />
        <mxCell id="in70z1ILgAUfOrTuzLVO-1" value="Bruker" style="rounded=1;whiteSpace=wrap;html=1;" vertex="1" parent="1">
          <mxGeometry x="50" y="260" width="120" height="60" as="geometry" />
        </mxCell>
        <mxCell id="in70z1ILgAUfOrTuzLVO-2" value="Orkestersett" style="rounded=1;whiteSpace=wrap;html=1;" vertex="1" parent="1">
          <mxGeometry x="420" y="260" width="120" height="60" as="geometry" />
        </mxCell>
        <mxCell id="in70z1ILgAUfOrTuzLVO-3" value="Medvirkere " style="rounded=1;whiteSpace=wrap;html=1;" vertex="1" parent="1">
          <mxGeometry x="420" y="490" width="120" height="60" as="geometry" />
        </mxCell>
        <mxCell id="in70z1ILgAUfOrTuzLVO-5" value="Filer / Linker" style="rounded=1;whiteSpace=wrap;html=1;" vertex="1" parent="1">
          <mxGeometry x="420" y="50" width="120" height="60" as="geometry" />
        </mxCell>
        <mxCell id="in70z1ILgAUfOrTuzLVO-7" value="" style="fontSize=12;html=1;endArrow=ERzeroToMany;startArrow=ERmandOne;rounded=0;exitX=1;exitY=0.5;exitDx=0;exitDy=0;entryX=0;entryY=0.5;entryDx=0;entryDy=0;" edge="1" parent="1" source="in70z1ILgAUfOrTuzLVO-1" target="in70z1ILgAUfOrTuzLVO-2">
          <mxGeometry width="100" height="100" relative="1" as="geometry">
            <mxPoint x="290" y="240" as="sourcePoint" />
            <mxPoint x="390" y="140" as="targetPoint" />
          </mxGeometry>
        </mxCell>
        <mxCell id="in70z1ILgAUfOrTuzLVO-8" value="" style="fontSize=12;html=1;endArrow=ERzeroToMany;startArrow=ERoneToMany;rounded=0;exitX=0.5;exitY=0;exitDx=0;exitDy=0;entryX=0.5;entryY=1;entryDx=0;entryDy=0;startFill=0;" edge="1" parent="1" source="in70z1ILgAUfOrTuzLVO-2" target="in70z1ILgAUfOrTuzLVO-5">
          <mxGeometry width="100" height="100" relative="1" as="geometry">
            <mxPoint x="180" y="450" as="sourcePoint" />
            <mxPoint x="440" y="450" as="targetPoint" />
          </mxGeometry>
        </mxCell>
        <mxCell id="in70z1ILgAUfOrTuzLVO-9" value="" style="fontSize=12;html=1;endArrow=ERzeroToMany;startArrow=ERoneToMany;rounded=0;exitX=0.5;exitY=1;exitDx=0;exitDy=0;entryX=0.5;entryY=0;entryDx=0;entryDy=0;startFill=0;" edge="1" parent="1" source="in70z1ILgAUfOrTuzLVO-2" target="in70z1ILgAUfOrTuzLVO-3">
          <mxGeometry width="100" height="100" relative="1" as="geometry">
            <mxPoint x="120" y="440" as="sourcePoint" />
            <mxPoint x="320" y="520" as="targetPoint" />
          </mxGeometry>
        </mxCell>
        <mxCell id="in70z1ILgAUfOrTuzLVO-10" value="En bruker kan opprette null eller mange ulike noter" style="text;html=1;align=center;verticalAlign=middle;resizable=0;points=[];autosize=1;strokeColor=none;fillColor=none;" vertex="1" parent="1">
          <mxGeometry x="120" y="210" width="300" height="30" as="geometry" />
        </mxCell>
        <mxCell id="in70z1ILgAUfOrTuzLVO-11" value="&lt;div&gt;Mange verk kan være laget av en eller mange medvirkere (komponist, teksforfatter, m.m). &lt;br&gt;&lt;/div&gt;&lt;div&gt;En medvirker kan også ikke ha noen verk (de da er akkurat opprettet)&lt;/div&gt;" style="text;html=1;align=center;verticalAlign=middle;resizable=0;points=[];autosize=1;strokeColor=none;fillColor=none;" vertex="1" parent="1">
          <mxGeometry x="-30" y="400" width="510" height="40" as="geometry" />
        </mxCell>
        <mxCell id="in70z1ILgAUfOrTuzLVO-13" value="Instrumenter" style="rounded=1;whiteSpace=wrap;html=1;" vertex="1" parent="1">
          <mxGeometry x="690" y="260" width="120" height="60" as="geometry" />
        </mxCell>
        <mxCell id="in70z1ILgAUfOrTuzLVO-14" value="" style="fontSize=12;html=1;endArrow=ERzeroToMany;startArrow=ERoneToMany;rounded=0;exitX=1;exitY=0.5;exitDx=0;exitDy=0;entryX=0;entryY=0.5;entryDx=0;entryDy=0;startFill=0;" edge="1" parent="1" source="in70z1ILgAUfOrTuzLVO-2" target="in70z1ILgAUfOrTuzLVO-13">
          <mxGeometry width="100" height="100" relative="1" as="geometry">
            <mxPoint x="700" y="440" as="sourcePoint" />
            <mxPoint x="660" y="630" as="targetPoint" />
          </mxGeometry>
        </mxCell>
        <mxCell id="in70z1ILgAUfOrTuzLVO-15" value="&lt;div&gt;Mange verk kan bruke felles instrumenter null eller flere&lt;/div&gt;" style="text;html=1;align=center;verticalAlign=middle;resizable=0;points=[];autosize=1;strokeColor=none;fillColor=none;" vertex="1" parent="1">
          <mxGeometry x="520" y="330" width="330" height="30" as="geometry" />
        </mxCell>
        <mxCell id="in70z1ILgAUfOrTuzLVO-16" value="Ett verk kan ha null eller mange filer tilknyttet seg. Feks PDF, mp3, en link" style="text;html=1;align=center;verticalAlign=middle;resizable=0;points=[];autosize=1;strokeColor=none;fillColor=none;" vertex="1" parent="1">
          <mxGeometry x="510" y="160" width="420" height="30" as="geometry" />
        </mxCell>
        <mxCell id="in70z1ILgAUfOrTuzLVO-18" value="&lt;h1 class=&quot;section-h&quot;&gt;Entitet/relasjonsmodell&lt;/h1&gt;&lt;h1 class=&quot;section-h&quot;&gt;for notedatabasen&lt;br&gt;&lt;/h1&gt;" style="text;html=1;align=center;verticalAlign=middle;resizable=0;points=[];autosize=1;strokeColor=none;fillColor=none;" vertex="1" parent="1">
          <mxGeometry x="40" y="45" width="290" height="120" as="geometry" />
        </mxCell>
      </root>
    </mxGraphModel>
  </diagram>
  <diagram id="8oxN1A9QErAx-zR6w42-" name="Page-2">
    <mxGraphModel dx="1341" dy="942" grid="1" gridSize="10" guides="1" tooltips="1" connect="1" arrows="1" fold="1" page="1" pageScale="1" pageWidth="850" pageHeight="1100" math="0" shadow="0">
      <root>
        <mxCell id="0" />
        <mxCell id="1" parent="0" />
        <mxCell id="M9WPUqXjWyafPK9tkeo6-1" value="Bruker" style="rounded=1;whiteSpace=wrap;html=1;" vertex="1" parent="1">
          <mxGeometry x="90" y="260" width="120" height="60" as="geometry" />
        </mxCell>
        <mxCell id="M9WPUqXjWyafPK9tkeo6-2" value="Orkestersett" style="rounded=1;whiteSpace=wrap;html=1;" vertex="1" parent="1">
          <mxGeometry x="420" y="260" width="120" height="60" as="geometry" />
        </mxCell>
        <mxCell id="M9WPUqXjWyafPK9tkeo6-3" value="Medvirkere " style="rounded=1;whiteSpace=wrap;html=1;" vertex="1" parent="1">
          <mxGeometry x="420" y="630" width="120" height="60" as="geometry" />
        </mxCell>
        <mxCell id="M9WPUqXjWyafPK9tkeo6-5" value="" style="fontSize=12;html=1;endArrow=ERzeroToMany;startArrow=ERmandOne;rounded=0;exitX=1;exitY=0.5;exitDx=0;exitDy=0;entryX=0;entryY=0.5;entryDx=0;entryDy=0;" edge="1" parent="1" source="M9WPUqXjWyafPK9tkeo6-1" target="M9WPUqXjWyafPK9tkeo6-2">
          <mxGeometry width="100" height="100" relative="1" as="geometry">
            <mxPoint x="290" y="240" as="sourcePoint" />
            <mxPoint x="390" y="140" as="targetPoint" />
          </mxGeometry>
        </mxCell>
        <mxCell id="M9WPUqXjWyafPK9tkeo6-8" value="&lt;div&gt;En bruker kan opprette&lt;/div&gt;&lt;div&gt;&amp;nbsp;null eller mange ulike orkestersett.&lt;br&gt;&lt;/div&gt;" style="text;html=1;align=center;verticalAlign=middle;resizable=0;points=[];autosize=1;strokeColor=none;fillColor=none;" vertex="1" parent="1">
          <mxGeometry x="205" y="240" width="220" height="40" as="geometry" />
        </mxCell>
        <mxCell id="M9WPUqXjWyafPK9tkeo6-9" value="&lt;div&gt;En medvirker kan ha &lt;br&gt;&lt;/div&gt;&lt;div&gt;null eller flere roller for et orkestersett&lt;/div&gt;" style="text;html=1;align=center;verticalAlign=middle;resizable=0;points=[];autosize=1;strokeColor=none;fillColor=none;" vertex="1" parent="1">
          <mxGeometry x="200" y="570" width="230" height="40" as="geometry" />
        </mxCell>
        <mxCell id="M9WPUqXjWyafPK9tkeo6-10" value="Orkestersettetes instrumenter" style="rounded=1;whiteSpace=wrap;html=1;" vertex="1" parent="1">
          <mxGeometry x="690" y="260" width="120" height="60" as="geometry" />
        </mxCell>
        <mxCell id="M9WPUqXjWyafPK9tkeo6-12" value="&lt;div&gt;Et orkestersett kan ha et eller flere&lt;/div&gt;&lt;div&gt;&amp;nbsp;instrumenter, (inkluder vokal)&lt;/div&gt;" style="text;html=1;align=center;verticalAlign=middle;resizable=0;points=[];autosize=1;strokeColor=none;fillColor=none;" vertex="1" parent="1">
          <mxGeometry x="535" y="320" width="210" height="40" as="geometry" />
        </mxCell>
        <mxCell id="M9WPUqXjWyafPK9tkeo6-14" value="&lt;h1 class=&quot;section-h&quot;&gt;Entitet/relasjonsmodell&lt;/h1&gt;&lt;h1 class=&quot;section-h&quot;&gt;for notedatabasen&lt;/h1&gt;&lt;h1 class=&quot;section-h&quot;&gt;(mange til mange brutt&amp;nbsp; opp)&lt;br&gt;&lt;/h1&gt;" style="text;html=1;align=center;verticalAlign=middle;resizable=0;points=[];autosize=1;strokeColor=none;fillColor=none;" vertex="1" parent="1">
          <mxGeometry x="10" y="25" width="350" height="160" as="geometry" />
        </mxCell>
        <mxCell id="M9WPUqXjWyafPK9tkeo6-29" value="Medvirkeres rolle" style="rounded=1;whiteSpace=wrap;html=1;" vertex="1" parent="1">
          <mxGeometry x="420" y="490" width="120" height="60" as="geometry" />
        </mxCell>
        <mxCell id="M9WPUqXjWyafPK9tkeo6-30" value="" style="fontSize=12;html=1;endArrow=ERzeroToMany;startArrow=ERmandOne;rounded=0;exitX=0.5;exitY=0;exitDx=0;exitDy=0;entryX=0.5;entryY=1;entryDx=0;entryDy=0;" edge="1" parent="1" source="M9WPUqXjWyafPK9tkeo6-3" target="M9WPUqXjWyafPK9tkeo6-29">
          <mxGeometry width="100" height="100" relative="1" as="geometry">
            <mxPoint x="390" y="650" as="sourcePoint" />
            <mxPoint x="640" y="650" as="targetPoint" />
          </mxGeometry>
        </mxCell>
        <mxCell id="M9WPUqXjWyafPK9tkeo6-31" value="" style="fontSize=12;html=1;endArrow=ERzeroToMany;startArrow=ERmandOne;rounded=0;exitX=0.5;exitY=1;exitDx=0;exitDy=0;entryX=0.5;entryY=0;entryDx=0;entryDy=0;" edge="1" parent="1" source="M9WPUqXjWyafPK9tkeo6-2" target="M9WPUqXjWyafPK9tkeo6-29">
          <mxGeometry width="100" height="100" relative="1" as="geometry">
            <mxPoint x="330" y="370" as="sourcePoint" />
            <mxPoint x="330" y="510" as="targetPoint" />
          </mxGeometry>
        </mxCell>
        <mxCell id="M9WPUqXjWyafPK9tkeo6-32" value="&lt;div&gt;Et orkestersett kan være skapt med&lt;/div&gt;&lt;div&gt;&amp;nbsp;mange ulike medvirkere med ulike roller&lt;/div&gt;" style="text;html=1;align=center;verticalAlign=middle;resizable=0;points=[];autosize=1;strokeColor=none;fillColor=none;" vertex="1" parent="1">
          <mxGeometry x="210" y="380" width="250" height="40" as="geometry" />
        </mxCell>
        <mxCell id="M9WPUqXjWyafPK9tkeo6-34" value="Roller" style="rounded=1;whiteSpace=wrap;html=1;" vertex="1" parent="1">
          <mxGeometry x="680" y="490" width="120" height="60" as="geometry" />
        </mxCell>
        <mxCell id="M9WPUqXjWyafPK9tkeo6-36" value="" style="fontSize=12;html=1;endArrow=ERzeroToMany;startArrow=ERmandOne;rounded=0;exitX=1;exitY=0.5;exitDx=0;exitDy=0;entryX=0;entryY=0.5;entryDx=0;entryDy=0;" edge="1" parent="1" source="M9WPUqXjWyafPK9tkeo6-29" target="M9WPUqXjWyafPK9tkeo6-34">
          <mxGeometry width="100" height="100" relative="1" as="geometry">
            <mxPoint x="690" y="620" as="sourcePoint" />
            <mxPoint x="690" y="790" as="targetPoint" />
          </mxGeometry>
        </mxCell>
        <mxCell id="M9WPUqXjWyafPK9tkeo6-37" value="Mange medvirkere kan ha samme roller i ulike orkestersett" style="text;html=1;align=center;verticalAlign=middle;resizable=0;points=[];autosize=1;strokeColor=none;fillColor=none;" vertex="1" parent="1">
          <mxGeometry x="520" y="450" width="300" height="30" as="geometry" />
        </mxCell>
        <mxCell id="M9WPUqXjWyafPK9tkeo6-38" value="Instrumenter" style="rounded=1;whiteSpace=wrap;html=1;" vertex="1" parent="1">
          <mxGeometry x="930" y="260" width="120" height="60" as="geometry" />
        </mxCell>
        <mxCell id="M9WPUqXjWyafPK9tkeo6-39" value="" style="fontSize=12;html=1;endArrow=ERzeroToMany;startArrow=ERmandOne;rounded=0;exitX=1;exitY=0.5;exitDx=0;exitDy=0;entryX=0;entryY=0.5;entryDx=0;entryDy=0;" edge="1" parent="1" source="M9WPUqXjWyafPK9tkeo6-2" target="M9WPUqXjWyafPK9tkeo6-10">
          <mxGeometry width="100" height="100" relative="1" as="geometry">
            <mxPoint x="490" y="330" as="sourcePoint" />
            <mxPoint x="490" y="500" as="targetPoint" />
          </mxGeometry>
        </mxCell>
        <mxCell id="M9WPUqXjWyafPK9tkeo6-40" value="" style="fontSize=12;html=1;endArrow=ERzeroToMany;startArrow=ERmandOne;rounded=0;exitX=0;exitY=0.5;exitDx=0;exitDy=0;entryX=1;entryY=0.5;entryDx=0;entryDy=0;" edge="1" parent="1" source="M9WPUqXjWyafPK9tkeo6-38" target="M9WPUqXjWyafPK9tkeo6-10">
          <mxGeometry width="100" height="100" relative="1" as="geometry">
            <mxPoint x="980" y="434.5" as="sourcePoint" />
            <mxPoint x="830" y="434.5" as="targetPoint" />
          </mxGeometry>
        </mxCell>
        <mxCell id="M9WPUqXjWyafPK9tkeo6-41" value="Et instrument kan gå igjen null eller flere ganger" style="text;html=1;align=center;verticalAlign=middle;resizable=0;points=[];autosize=1;strokeColor=none;fillColor=none;" vertex="1" parent="1">
          <mxGeometry x="810" y="218" width="290" height="30" as="geometry" />
        </mxCell>
        <mxCell id="M9WPUqXjWyafPK9tkeo6-42" value="Filer / Linker" style="rounded=1;whiteSpace=wrap;html=1;" vertex="1" parent="1">
          <mxGeometry x="420" y="100" width="120" height="60" as="geometry" />
        </mxCell>
        <mxCell id="M9WPUqXjWyafPK9tkeo6-43" value="" style="fontSize=12;html=1;endArrow=ERzeroToMany;startArrow=ERmandOne;rounded=0;exitX=0.5;exitY=0;exitDx=0;exitDy=0;entryX=0.5;entryY=1;entryDx=0;entryDy=0;" edge="1" parent="1" source="M9WPUqXjWyafPK9tkeo6-2" target="M9WPUqXjWyafPK9tkeo6-42">
          <mxGeometry width="100" height="100" relative="1" as="geometry">
            <mxPoint x="440" y="165" as="sourcePoint" />
            <mxPoint x="480" y="180" as="targetPoint" />
          </mxGeometry>
        </mxCell>
        <mxCell id="M9WPUqXjWyafPK9tkeo6-45" value="&lt;div&gt;Et orkestersett kan null eller flere &lt;br&gt;&lt;/div&gt;&lt;div&gt;filer tilknyttet seg, filen må ha en tilknytning.&lt;/div&gt;" style="text;html=1;align=center;verticalAlign=middle;resizable=0;points=[];autosize=1;strokeColor=none;fillColor=none;" vertex="1" parent="1">
          <mxGeometry x="510" y="183" width="260" height="40" as="geometry" />
        </mxCell>
      </root>
    </mxGraphModel>
  </diagram>
</mxfile>
